<?xml version="1.0" encoding="utf-8"?>
<svg version="1.1" xmlns:xlink="http://www.w3.org/1999/xlink" width="300px" height="170px" xmlns="http://www.w3.org/2000/svg">
  <g transform="matrix(1 0 0 1 -240 -210 )">
    <path d="M 240 210  L 540 210  L 540 380  L 240 380  L 240 210  " fill-rule="nonzero" fill="#cccccc" stroke="none" />
    <path d="M 252 222  L 528 222  L 528 368  L 252 368  L 252 222  " fill-rule="nonzero" fill="#ffffff" stroke="none" />
    <path d="M 408.75 261  C 401.61 261  396 255.39  396 248.25  C 396 241.11  401.61 235.5  408.75 235.5  C 415.89 235.5  421.5 241.11  421.5 248.25  C 421.5 255.39  415.89 261  408.75 261  " fill-rule="nonzero" fill="#cccccc" stroke="none" />
    <path d="M 257 364  L 257 288.65  L 323.75 254.39999999999998  L 417.2 317.42  L 470.6 274.95  L 524 317.42  L 524 364  L 257 364  " fill-rule="nonzero" fill="#169bd5" stroke="none" />
  </g>
</svg>