<?xml version="1.0" encoding="utf-8"?>
<svg version="1.1" xmlns:xlink="http://www.w3.org/1999/xlink" width="20px" height="16px" xmlns="http://www.w3.org/2000/svg">
  <g transform="matrix(1 0 0 1 -250 -17 )">
    <path d="M 4.00009765625 2.2000781249999997  L 4.00009765625 0.20009765624999995  L 19.999882812499997 0.20009765624999995  L 19.999882812499997 2.2000781249999997  L 4.00009765625 2.2000781249999997  Z M 4.00009765625 9  L 4.00009765625 7  L 17.99990234375 7  L 17.99990234375 9  L 4.00009765625 9  Z M 4.00009765625 15.79990234375  L 4.00009765625 13.799921875  L 13.9999609375 13.799921875  L 13.9999609375 15.79990234375  L 4.00009765625 15.79990234375  Z M 0.0001171875 2.2000781249999997  L 0.0001171875 0.20009765624999995  L 2.00009765625 0.20009765624999995  L 2.00009765625 2.2000781249999997  L 0.0001171875 2.2000781249999997  Z M 0.0001171875 8.999980468749998  L 0.0001171875 7.0000195312499995  L 2.00009765625 7.0000195312499995  L 2.00009765625 8.999980468749998  L 0.0001171875 8.999980468749998  Z M 0.0001171875 15.79990234375  L 0.0001171875 13.799921875  L 2.00009765625 13.799921875  L 2.00009765625 15.79990234375  L 0.0001171875 15.79990234375  Z " fill-rule="nonzero" fill="#040000" stroke="none" transform="matrix(1 0 0 1 250 17 )" />
  </g>
</svg>