<?xml version="1.0" encoding="utf-8"?>
<svg version="1.1" xmlns:xlink="http://www.w3.org/1999/xlink" width="20px" height="19px" xmlns="http://www.w3.org/2000/svg">
  <g transform="matrix(1 0 0 1 -310 -16 )">
    <path d="M 19.328429813058033 4.89110851975661  C 19.45081711077009 4.52652186298077  19.27083583984375 4.132473609525241  18.92167214704241 4.003579319411058  C 18.572508454241067 3.8746850292968746  18.187348507254463 4.062502427133413  18.06496125139509 4.419723722205529  L 17.54661515764509 5.90753207444411  C 16.93827841796875 4.504425692232571  15.977178383091516 3.2707232286658647  14.753305657087054 2.3463670485276436  C 10.862110351562501 -0.5997880806790874  5.318686851283482 0.20303919245793173  2.4029900948660705 4.1435216841947105  C 0.991936830357143 6.051157130784255  0.39439898158482134 8.400715863882212  0.7255645368303572 10.757639980093153  C 1.0567300920758929 13.12561217097356  2.2842024414062503 15.221065015399638  4.1740059012276785 16.653632951472357  C 5.757841190011161 17.850508478064906  7.611648395647322 18.432374107947716  9.451057087053572 18.432374107947716  C 12.139977448381696 18.432374107947716  14.792901534598213 17.198671644381008  16.524321463448658 14.860161007361777  C 17.29104173409598 13.825324016301082  17.812987451171875 12.66895811823918  18.08295936802455 11.416842196890027  C 18.162151123046876 11.044890114182694  17.931775083705354 10.68030341458834  17.571812520926336 10.59928413611779  C 17.21184995814732 10.518264879056492  16.8518873953683 10.75027459698017  16.77269561941964 11.122226679687502  C 16.545919203404015 12.179159841496395  16.103165241350442 13.158756416391228  15.45523264508928 14.031554871920076  C 12.982289829799106 17.371758254582335  8.277579129464282 18.053056642127405  4.9731227818080335 15.548824778019835  C 3.371289376395086 14.337218485201328  2.3345971888950867 12.56584269042969  2.05382638113839 10.562457199143632  C 1.7730555733816935 8.570119782527046  2.277003173828122 6.5851477704326955  3.4720788922991046 4.972127819636422  C 5.941422084263392 1.6319244369741583  10.642533182198662 0.9469433578725963  13.950589132254462 3.4511752219801677  C 15.149264474051341 4.357117922926682  16.04557124720982 5.612916557241588  16.531520710100448 7.0307537056790865  L 14.224160672433037 6.110080217097356  C 13.878596602957586 5.9738205438701915  13.489837032645088 6.146907154071514  13.353051262555802 6.5004457789963945  C 13.216265492466519 6.853984403921273  13.389047516741071 7.251715348933292  13.734611586216516 7.391657713716946  L 17.132658182198657 8.750571775841346  C 17.21184993722098 8.783716021259014  17.294641336495534 8.798446787484975  17.377432735770086 8.798446787484975  C 17.388231605747762 8.798446787484975  17.399030496651783 8.794764095928485  17.409829366629463 8.794764095928485  C 17.435026750837054 8.798446787484975  17.46022413504464 8.809494862154446  17.48542149832589 8.809494862154446  C 17.762592682756694 8.809494862154446  18.021765708705356 8.632725560396633  18.11895560128348 8.352840809420073  L 19.328429813058033 4.89110851975661  Z " fill-rule="nonzero" fill="#575b66" stroke="none" transform="matrix(1 0 0 1 310 16 )" />
  </g>
</svg>