<?xml version="1.0" encoding="utf-8"?>
<svg version="1.1" xmlns:xlink="http://www.w3.org/1999/xlink" width="9px" height="14px" xmlns="http://www.w3.org/2000/svg">
  <g transform="matrix(1 0 0 1 -250 -63 )">
    <path d="M 7.318750000000001 0.47689028026194613  C 7.56514368618487 0.47689028026194613  7.801354973900727 0.5751936685850589  7.975 0.75  C 8.299121220200941 1.1036339274359372  8.299121220200941 1.6463660725640628  7.975 2  L 2.9749999999999996 7  L 7.975 12  C 8.045373985790757 12.133179341563372  8.082159392243229 12.281529930001179  8.082159392243229 12.432159392243234  C 8.082159392243229 12.943022785836718  7.668022785836712 13.357159392243233  7.15715939224323 13.357159392243233  C 7.006529930001173 13.357159392243233  6.858179341563369 13.32037398579076  6.725 13.25  L 1.0249999999999995 7.662499999999998  C 0.8535331304098523 7.4839428732127455  0.7553855900002366 7.2474965258623065  0.75 7  C 0.7521563745377873 6.755503334035117  0.8510284754536501 6.52180564096126  1.0250000000000004 6.350000000000001  L 6.6625 0.75  C 6.836145026099274 0.575193668585058  7.072356313815131 0.47689028026194613  7.318750000000001 0.47689028026194613  Z " fill-rule="nonzero" fill="#000000" stroke="none" transform="matrix(1 0 0 1 250 63 )" />
  </g>
</svg>