<?xml version="1.0" encoding="utf-8"?>
<svg version="1.1" xmlns:xlink="http://www.w3.org/1999/xlink" width="20px" height="16px" xmlns="http://www.w3.org/2000/svg">
  <g transform="matrix(1 0 0 1 -284 -62 )">
    <path d="M 19.0048047265625 9.5127743359375  C 19.1009395703125 9.28063173828125  19.1717315625 8.800777070312499  18.5656425 8.1946880078125  L 11.46409734375 1.0932627734375  C 10.640915468749998 0.2700608984374999  9.30148359375 0.2700608984374999  8.478281718749999 1.0932827539062502  L 1.3769164453124998 8.1946880078125  C 0.7708473632812498 8.800777070312499  0.841619375 9.28063173828125  0.9377741796875 9.5127943359375  C 1.03390900390625 9.7448569921875  1.32317287109375 10.134252988281249  2.18031173828125 10.134252988281249  L 3.9615840429687497 10.134252988281249  L 3.9615840429687497 12.170132656249999  L 3.9646219921875 12.170132656249999  L 3.9646219921875 14.526395117187498  C 3.9646219921875 15.048900859375  4.38973376953125 15.473952675781248  4.9122195117187495 15.473952675781248  L 7.82086744140625 15.473952675781248  C 8.34337318359375 15.473952675781248  8.7684649609375 15.048880878906246  8.7684649609375 14.526395117187498  L 8.76846498046875 12.17013265625  L 11.0628094140625 12.17013265625  L 11.0628094140625 14.526395117187501  C 11.0628094140625 15.048900859375  11.48792119140625 15.473952675781248  12.0104469140625 15.473952675781248  L 14.919054882812501 15.473952675781248  C 15.441620585937502 15.473952675781248  15.866732363281251 15.04888087890625  15.866712363281252 14.526734882812498  L 15.870309921875002 10.134232988281251  L 17.76226716796875 10.134232988281251  C 18.61938603515625 10.134232988281251  18.908649921875 9.7448569921875  19.0048047265625 9.5127743359375  Z M 18.172429121093753 9.1680080859375  C 18.128179101562502 9.1949898046875  18.003203828125002 9.240898671875  17.7622671875 9.240898671875  L 15.48475134765625 9.240898671875  C 15.458289296874998 9.240898671875  15.432406835937499 9.24331703125  15.40720392578125 9.247734042968748  C 15.167786249999999 9.25624826171875  14.9761162109375 9.452795019531248  14.97591634765625 9.69435123046875  L 14.9719790234375 14.526395097656248  C 14.9719790234375 14.555515351562498  14.948235117187501 14.57921927734375  14.9190948828125 14.57921927734375  L 12.010466894531252 14.579219296875  C 11.98130666015625 14.579219296875  11.957602734375001 14.555515371093751  11.957602734375001 14.526395117187501  L 11.957602734375001 11.275399296875001  L 7.87371162109375 11.275399277343748  L 7.87371162109375 14.526395097656248  C 7.87371162109375 14.555515351562498  7.849987714843749 14.57921927734375  7.82086744140625 14.57921927734375  L 4.91221951171875 14.579219296875  C 4.8830992578125 14.579219296875  4.85937533203125 14.555515371093751  4.85937533203125 14.526395117187501  L 4.85937533203125 11.275399296875001  L 4.85631740234375 11.275399296875001  L 4.85631740234375 9.683398671875  C 4.85631740234375 9.436346171875  4.656033203125 9.236002011718751  4.4089207421875 9.236002011718751  C 4.3851768359375 9.236002011718751  4.36187263671875 9.237920703125003  4.33916802734375 9.2414583203125  C 4.33195291015625 9.2410985546875  4.32465787109375 9.24091869140625  4.31734283203125 9.24091869140625  L 2.1803117578125 9.24091865234375  C 1.93933513671875 9.24091865234375  1.81437986328125 9.195009785156248  1.77014984375 9.1680080859375  C 1.7823215820312501 9.11762224609375  1.838243671875 8.99680416015625  2.0086281640625 8.82643966796875  L 9.110013417968752 1.725014433593751  C 9.5848914453125 1.2501563867187504  10.35752759765625 1.2501563867187504  10.832405644531251 1.725014433593751  L 17.93395080078125 8.82643966796875  C 18.104335273437503 8.9967841796875  18.1602373828125 9.117602265624999  18.172429121093753 9.1680080859375  Z " fill-rule="nonzero" fill="#262236" stroke="none" transform="matrix(1 0 0 1 284 62 )" />
  </g>
</svg>