<?xml version="1.0" encoding="utf-8"?>
<svg version="1.1" xmlns:xlink="http://www.w3.org/1999/xlink" width="40px" height="40px" xmlns="http://www.w3.org/2000/svg">
  <g transform="matrix(1 0 0 1 -1472 -20 )">
    <path d="M 39.08560075431034 35.82067618534482  L 23.03838900862069 19.767483836206896  L 39.0856411637931 3.7142914870689654  C 39.894998561954196 2.8952888855125187  39.894998561954196 1.5776232912116182  39.085641163793106 0.7586206896551726  L 38.99698275862069 0.6699622844827586  C 38.17842132567313 -0.14046846324144438  36.85987339415446 -0.14046846324144024  36.041311961206894 0.6699622844827586  L 19.9959994612069 16.74485452586207  L 3.9506869612069 0.6699622844827592  C 3.1321255282593405 -0.14046846324144294  1.8135775967406658 -0.14046846324144285  0.9950161637931068 0.6699622844827592  L 0.9082974137931067 0.758620689655173  C 0.5096228520108339 1.1469612698608156  0.2847603372312614 1.6799043724840732  0.2847603372312614 2.23645608836207  C 0.2847603372312614 2.7930078042400663  0.5096228520108339 3.325950906863323  0.9082974137931067 3.7142914870689663  L 16.953650323275866 19.767483836206896  L 0.9082974137931031 35.818736530172416  C 0.09896663766539904 36.637734324240625  0.09896663766539904 37.95536912403523  0.9082974137931034 38.77436691810345  L 0.9950161637931032 38.86306573275863  C 1.8135775967406613 39.67349648048283  3.132125528259338 39.67349648048283  3.9506869612068964 38.86306573275863  L 19.995959051724135 22.811813038793105  L 36.04127155172413 38.86306573275861  C 36.8598329846717 39.673496480482825  38.17838091619037 39.673496480482825  38.996942349137925 38.86306573275861  L 39.08560075431034 38.77634698275862  C 39.89495815247144 37.95734438120218  39.894958152471446 36.639678786901264  39.08560075431034 35.82067618534482  Z " fill-rule="nonzero" fill="#000000" stroke="none" transform="matrix(1 0 0 1 1472 20 )" />
  </g>
</svg>