<?xml version="1.0" encoding="utf-8"?>
<svg version="1.1" xmlns:xlink="http://www.w3.org/1999/xlink" width="30px" height="30px" xmlns="http://www.w3.org/2000/svg">
  <g transform="matrix(1 0 0 1 -704 -85 )">
    <path d="M 719 85  C 727.4 85  734 91.6  734 100  C 734 108.4  727.4 115  719 115  C 710.6 115  704 108.4  704 100  C 704 91.6  710.6 85  719 85  Z " fill-rule="nonzero" fill="#ffffff" stroke="none" />
    <path d="M 719 85.5  C 727.12 85.5  733.5 91.88  733.5 100  C 733.5 108.12  727.12 114.5  719 114.5  C 710.88 114.5  704.5 108.12  704.5 100  C 704.5 91.88  710.88 85.5  719 85.5  Z " stroke-width="1" stroke="#02a7f0" fill="none" />
  </g>
</svg>