<?xml version="1.0" encoding="utf-8"?>
<svg version="1.1" xmlns:xlink="http://www.w3.org/1999/xlink" width="30px" height="30px" xmlns="http://www.w3.org/2000/svg">
  <g transform="matrix(1 0 0 1 -30 0 )">
    <path d="M 45 0  C 53.400000000000006 0  60 6.6  60 15  C 60 23.400000000000002  53.400000000000006 30  45 30  C 36.6 30  30 23.400000000000002  30 15  C 30 6.6  36.6 0  45 0  Z " fill-rule="nonzero" fill="#ffffff" stroke="none" />
    <path d="M 45 0.5  C 53.120000000000005 0.5  59.5 6.879999999999999  59.5 15  C 59.5 23.12  53.120000000000005 29.5  45 29.5  C 36.879999999999995 29.5  30.5 23.12  30.5 15  C 30.5 6.879999999999999  36.879999999999995 0.5  45 0.5  Z " stroke-width="1" stroke="#169bd5" fill="none" />
  </g>
</svg>