<?xml version="1.0" encoding="utf-8"?>
<svg version="1.1" xmlns:xlink="http://www.w3.org/1999/xlink" width="13px" height="13px" viewBox="246 273  13 13" xmlns="http://www.w3.org/2000/svg">
  <path d="M 252.5 273  C 256.14 273  259 275.86  259 279.5  C 259 283.14  256.14 286  252.5 286  C 248.86 286  246 283.14  246 279.5  C 246 275.86  248.86 273  252.5 273  Z " fill-rule="nonzero" fill="#ffffff" stroke="none" />
  <path d="M 252.5 273.5  C 255.86 273.5  258.5 276.14  258.5 279.5  C 258.5 282.86  255.86 285.5  252.5 285.5  C 249.14 285.5  246.5 282.86  246.5 279.5  C 246.5 276.14  249.14 273.5  252.5 273.5  Z " stroke-width="1" stroke="#797979" fill="none" />
  <path d="M 252.5 282.75  C 250.68 282.75  249.25 281.32  249.25 279.5  C 249.25 277.68  250.68 276.25  252.5 276.25  C 254.32 276.25  255.75 277.68  255.75 279.5  C 255.75 281.32  254.32 282.75  252.5 282.75  " fill-rule="nonzero" fill="#797979" stroke="none" />
</svg>