<?xml version="1.0" encoding="utf-8"?>
<svg version="1.1" xmlns:xlink="http://www.w3.org/1999/xlink" width="13px" height="13px" viewBox="310 273  13 13" xmlns="http://www.w3.org/2000/svg">
  <path d="M 316.5 273  C 320.14 273  323 275.86  323 279.5  C 323 283.14  320.14 286  316.5 286  C 312.86 286  310 283.14  310 279.5  C 310 275.86  312.86 273  316.5 273  Z " fill-rule="nonzero" fill="#f0f0f0" stroke="none" />
  <path d="M 316.5 273.5  C 319.86 273.5  322.5 276.14  322.5 279.5  C 322.5 282.86  319.86 285.5  316.5 285.5  C 313.14 285.5  310.5 282.86  310.5 279.5  C 310.5 276.14  313.14 273.5  316.5 273.5  Z " stroke-width="1" stroke="#797979" fill="none" />
  <path d="M 316.5 282.75  C 314.68 282.75  313.25 281.32  313.25 279.5  C 313.25 277.68  314.68 276.25  316.5 276.25  C 318.32 276.25  319.75 277.68  319.75 279.5  C 319.75 281.32  318.32 282.75  316.5 282.75  " fill-rule="nonzero" fill="#797979" stroke="none" />
</svg>