<?xml version="1.0" encoding="utf-8"?>
<svg version="1.1" xmlns:xlink="http://www.w3.org/1999/xlink" width="13px" height="13px" viewBox="284 166  13 13" xmlns="http://www.w3.org/2000/svg">
  <path d="M 290.5 166  C 294.14 166  297 168.86  297 172.5  C 297 176.14  294.14 179  290.5 179  C 286.86 179  284 176.14  284 172.5  C 284 168.86  286.86 166  290.5 166  Z " fill-rule="nonzero" fill="#f0f0f0" stroke="none" />
  <path d="M 290.5 166.5  C 293.86 166.5  296.5 169.14  296.5 172.5  C 296.5 175.86  293.86 178.5  290.5 178.5  C 287.14 178.5  284.5 175.86  284.5 172.5  C 284.5 169.14  287.14 166.5  290.5 166.5  Z " stroke-width="1" stroke="#797979" fill="none" />
  <path d="M 290.5 175.75  C 288.68 175.75  287.25 174.32  287.25 172.5  C 287.25 170.68  288.68 169.25  290.5 169.25  C 292.32 169.25  293.75 170.68  293.75 172.5  C 293.75 174.32  292.32 175.75  290.5 175.75  " fill-rule="nonzero" fill="#797979" stroke="none" />
</svg>