<?xml version="1.0" encoding="utf-8"?>
<svg version="1.1" xmlns:xlink="http://www.w3.org/1999/xlink" width="13px" height="13px" viewBox="346 155  13 13" xmlns="http://www.w3.org/2000/svg">
  <path d="M 352.5 155  C 356.14 155  359 157.86  359 161.5  C 359 165.14  356.14 168  352.5 168  C 348.86 168  346 165.14  346 161.5  C 346 157.86  348.86 155  352.5 155  Z " fill-rule="nonzero" fill="#f0f0f0" stroke="none" />
  <path d="M 352.5 155.5  C 355.86 155.5  358.5 158.14  358.5 161.5  C 358.5 164.86  355.86 167.5  352.5 167.5  C 349.14 167.5  346.5 164.86  346.5 161.5  C 346.5 158.14  349.14 155.5  352.5 155.5  Z " stroke-width="1" stroke="#797979" fill="none" />
  <path d="M 352.5 164.75  C 350.68 164.75  349.25 163.32  349.25 161.5  C 349.25 159.68  350.68 158.25  352.5 158.25  C 354.32 158.25  355.75 159.68  355.75 161.5  C 355.75 163.32  354.32 164.75  352.5 164.75  " fill-rule="nonzero" fill="#797979" stroke="none" />
</svg>